<svg width="34" height="34" viewBox="0 0 34 34" fill="none" xmlns="http://www.w3.org/2000/svg">
<path d="M16.3345 9.09452L17.0102 10.4978L17.686 9.09452C18.7351 6.91592 20.9545 5.75146 23.6278 5.75146C27.2743 5.75146 30.2397 8.85059 30.2499 12.659C30.2544 14.3558 29.4742 16.2469 28.1968 18.1814C26.9279 20.1028 25.2208 21.989 23.4917 23.6587C21.7658 25.3254 20.0362 26.759 18.7366 27.7768C18.0874 28.2852 17.5469 28.6887 17.1696 28.9645C17.1127 29.0061 17.0595 29.0448 17.0103 29.0805C16.961 29.0448 16.9078 29.0061 16.8509 28.9645C16.4736 28.6886 15.9331 28.2849 15.2837 27.7762C13.9838 26.7578 12.2536 25.323 10.5264 23.6537C8.79612 21.9814 7.08701 20.0914 5.81523 18.164C4.53506 16.2239 3.75016 14.324 3.75016 12.6153C3.75016 8.82004 6.74708 5.75146 10.4049 5.75146C13.0767 5.75146 15.2849 6.91483 16.3345 9.09452Z" fill="#E12317" stroke="#E12317" stroke-width="1.5"/>
</svg>
