<svg width="32" height="32" viewBox="0 0 32 32" fill="none" xmlns="http://www.w3.org/2000/svg">
<path d="M5.71484 10.0572L8.95294 5.71436H21.9053L25.1434 10.0572M5.71484 10.0572V25.2572C5.71484 25.8331 5.94228 26.3854 6.34712 26.7926C6.75196 27.1999 7.30104 27.4286 7.87357 27.4286H22.9847C23.5572 27.4286 24.1063 27.1999 24.5111 26.7926C24.916 26.3854 25.1434 25.8331 25.1434 25.2572V10.0572M5.71484 10.0572H25.1434M19.7466 14.4001C19.7466 15.5519 19.2917 16.6565 18.482 17.4709C17.6724 18.2854 16.5742 18.7429 15.4291 18.7429C14.2841 18.7429 13.1859 18.2854 12.3762 17.4709C11.5665 16.6565 11.1117 15.5519 11.1117 14.4001" stroke="#EBEBEB" stroke-width="1.5" stroke-linecap="round" stroke-linejoin="round"/>
</svg>
